<svg xmlns="http://www.w3.org/2000/svg" xml:space="preserve" width="26.6414mm" height="40.6902mm" version="1.1" style="shape-rendering:geometricPrecision; text-rendering:geometricPrecision; image-rendering:optimizeQuality; fill-rule:evenodd; clip-rule:evenodd"
viewBox="0 0 2664 4069"
 xmlns:xlink="http://www.w3.org/1999/xlink">
 <defs>
  <style type="text/css">
   <![CDATA[
    .fil1 {fill:#000}
    .fil0 {fill:#000;fill-rule:nonzero}
   ]]>
  </style>
 </defs>
 <g>
  <g>
   <g>
    <path class="fil0" d="M127 3697l152 0 78 -193 291 0 -39 -103 -215 0 126 -312c4,-11 12,-32 22,-32 10,0 17,21 22,32l94 234 1 -1 24 65 5 13 0 0 51 135 0 0 65 161 152 0 -289 -687c-27,-64 -60,-86 -126,-86 -69,0 -98,22 -126,86l-289 687z"/>
    <polygon class="fil0" points="1158,3385 1158,3244 1024,3244 1024,3385 "/>
    <polygon class="fil0" points="2183,3385 2183,3244 2049,3244 2049,3385 "/>
    <path class="fil0" d="M2529 3697l0 -544 -144 0 0 544 144 0zm0 -618l0 -147 -144 0 0 147 144 0z"/>
    <path class="fil0" d="M252 4067l0 -22 -50 0c-18,0 -31,-3 -39,-14 -3,-5 -7,-14 -7,-36 0,-22 4,-33 8,-40 8,-13 22,-14 39,-14l46 0 0 -22 -59 0c-11,0 -34,1 -48,19 -12,15 -14,36 -14,58 0,16 1,39 15,55 14,15 33,17 47,17l62 0zm174 -150c-18,0 -43,0 -59,16 -16,15 -17,40 -17,60 0,17 0,44 17,60 16,16 41,16 59,16 17,0 43,0 59,-16 15,-15 17,-41 17,-60 0,-19 -1,-45 -17,-60 -16,-16 -41,-16 -59,-16zm-47 76c0,-23 3,-34 9,-41 9,-11 23,-12 38,-12 15,0 30,1 38,12 5,6 9,16 9,41 0,24 -4,35 -9,41 -9,11 -23,12 -38,12 -15,0 -29,-1 -38,-12 -5,-6 -9,-17 -9,-41zm228 74l28 0 0 -115c0,-3 0,-6 3,-8 2,-2 4,-2 7,-2l45 0c4,0 11,0 16,4 3,3 5,9 5,21 0,5 0,16 -3,20 -4,6 -10,7 -15,7l-28 0c-8,0 -12,4 -12,10l0 3c0,4 4,10 7,12l49 48 35 0 -56 -52 0 -1 19 0c17,0 24,-8 28,-15 6,-11 6,-23 6,-33 0,-11 0,-22 -7,-33 -9,-13 -21,-14 -32,-14l-70 0c-5,0 -12,1 -18,6 -6,6 -6,13 -6,19l0 123zm267 0l0 -52 69 0c9,0 17,-3 23,-7 12,-10 13,-29 13,-41 0,-12 -1,-29 -11,-39 -9,-9 -22,-9 -29,-9l-70 0c-5,0 -12,1 -17,6 -5,5 -5,11 -5,17l0 126 28 0zm0 -75l0 -42c0,-3 0,-5 2,-7 2,-2 5,-2 7,-2l45 0c5,0 12,0 17,5 5,5 5,14 5,20 0,6 0,15 -5,20 -5,6 -12,6 -18,6l-53 0zm281 -75c-18,0 -43,0 -59,16 -16,15 -17,40 -17,60 0,17 0,44 17,60 16,16 41,16 59,16 17,0 43,0 59,-16 15,-15 17,-41 17,-60 0,-19 -1,-45 -17,-60 -16,-16 -41,-16 -59,-16zm-47 76c0,-23 3,-34 9,-41 9,-11 23,-12 38,-12 15,0 30,1 38,12 5,6 9,16 9,41 0,24 -4,35 -9,41 -9,11 -23,12 -38,12 -15,0 -29,-1 -38,-12 -5,-6 -9,-17 -9,-41zm228 74l28 0 0 -115c0,-3 0,-6 3,-8 2,-2 4,-2 7,-2l45 0c4,0 11,0 16,4 3,3 5,9 5,21 0,5 0,16 -3,20 -4,6 -10,7 -15,7l-28 0c-8,0 -12,4 -12,10l0 3c0,4 4,10 7,12l49 48 35 0 -56 -52 0 -1 19 0c17,0 24,-8 28,-15 6,-11 6,-23 6,-33 0,-11 0,-22 -7,-33 -9,-13 -21,-14 -32,-14l-70 0c-6,0 -12,1 -18,6 -6,6 -6,13 -6,19l0 123zm220 0l29 0 15 -37 71 0 15 37 29 0 -56 -133c-5,-12 -12,-17 -24,-17 -13,0 -19,4 -24,17l-56 133zm76 -118c1,-2 2,-6 4,-6 2,0 3,4 4,6l24 60 -57 0 24 -60zm224 118l0 -126 58 0 0 -22 -144 0 0 22 58 0 0 126 28 0zm180 0l0 -148 -28 0 0 148 28 0zm181 -150c-18,0 -43,0 -59,16 -16,15 -17,40 -17,60 0,17 0,44 17,60 16,16 41,16 59,16 17,0 43,0 59,-16 15,-15 17,-41 17,-60 0,-19 -1,-45 -17,-60 -16,-16 -41,-16 -59,-16zm-47 76c0,-23 3,-34 9,-41 9,-11 23,-12 38,-12 15,0 30,1 38,12 5,6 9,16 9,41 0,24 -4,35 -9,41 -9,11 -23,12 -38,12 -15,0 -29,-1 -38,-12 -5,-6 -9,-17 -9,-41zm370 -74l-27 0 0 109c0,1 0,4 -2,4 -2,0 -2,-2 -3,-4l-63 -99c-4,-6 -10,-12 -23,-12 -14,0 -23,7 -23,20l0 130 27 0 0 -109c0,-3 2,-4 3,-4 0,0 1,0 3,4l62 99c7,10 15,12 24,12 12,0 22,-6 22,-21l0 -129z"/>
    <path class="fil0" d="M1359 2932l-156 0 278 691c31,75 89,83 124,83 15,0 29,-2 41,-5l-55 -146c-1,-2 -2,-4 -2,-5l-228 -618zm348 727c9,-12 15,-25 20,-36l278 -691 -156 0 -206 556 64 171z"/>
   </g>
   <path class="fil1" d="M1332 0c736,0 1332,596 1332,1332 0,736 -596,1332 -1332,1332 -736,0 -1332,-596 -1332,-1332 0,-736 596,-1332 1332,-1332zm-539 1425l-121 300 160 397 116 -313 -155 -385zm1199 -486l-121 300 -155 -385 116 -313 160 397zm-349 870l-58 144c-63,154 -181,170 -252,170 -158,0 -223,-96 -252,-170l-409 -1018 158 -393 3 0 467 1261c4,11 13,33 33,33 20,0 29,-22 34,-33l137 -371 139 377zm190 314l2 0 159 -395 -350 -871 0 0 -58 -144c-63,-154 -181,-170 -252,-170l-3 0 0 0c-156,1 -220,96 -249,170l-58 144 139 377 137 -371c4,-11 12,-31 30,-33l0 0 1 0 0 0 0 0 0 0 0 0 0 0 0 0 0 0 0 0 0 0 0 0 0 0 0 0 0 0 0 0 0 0 0 0 0 0 0 0 0 0 0 0 0 0 0 0 0 0c20,0 29,22 34,33l137 371 0 0 329 890zm-501 -909c-65,0 -118,53 -118,118 0,65 53,118 118,118 65,0 118,-53 118,-118 0,-65 -53,-118 -118,-118z"/>
  </g>
 </g>
</svg>
