<svg xmlns="http://www.w3.org/2000/svg" xml:space="preserve" version="1.1" style="shape-rendering:geometricPrecision; text-rendering:geometricPrecision; image-rendering:optimizeQuality; fill-rule:evenodd; clip-rule:evenodd"
viewBox="0 0 2664 2664">
 <g>
  <path fill="#fff" d="M1332 0c736,0 1332,596 1332,1332 0,736 -596,1332 -1332,1332 -736,0 -1332,-596 -1332,-1332 0,-736 596,-1332 1332,-1332zm-539 1425l-121 300 160 397 116 -313 -155 -385zm1199 -486l-121 300 -155 -385 116 -313 160 397zm-349 870l-58 144c-63,154 -181,170 -252,170 -158,0 -223,-96 -252,-170l-409 -1018 158 -393 3 0 467 1261c4,11 13,33 33,33 20,0 29,-22 34,-33l137 -371 139 377zm190 314l2 0 159 -395 -350 -871 0 0 -58 -144c-63,-154 -181,-170 -252,-170l-3 0 0 0c-156,1 -220,96 -249,170l-58 144 139 377 137 -371c4,-11 12,-31 30,-33l0 0 1 0 0 0 0 0 0 0 0 0 0 0 0 0 0 0 0 0 0 0 0 0 0 0 0 0 0 0 0 0 0 0 0 0 0 0 0 0 0 0 0 0 0 0 0 0 0 0c20,0 29,22 34,33l137 371 0 0 329 890zm-501 -909c-65,0 -118,53 -118,118 0,65 53,118 118,118 65,0 118,-53 118,-118 0,-65 -53,-118 -118,-118z"/>
 </g>
</svg>
